Coordinates
version=1
nRows=6
nColumns=36
inDegrees=yes

Units are S.I. units (second, meters, Newtons, ...)
If the header above contains a line with 'inDegrees', this indicates whether rotational values are in degrees (yes) or radians (no).

endheader
time	pelvis_tilt	pelvis_list	pelvis_rotation	pelvis_tx	pelvis_ty	pelvis_tz	hip_flexion_r	hip_adduction_r	hip_rotation_r	knee_angle_r	knee_angle_r_beta	ankle_angle_r	subtalar_angle_r	mtp_angle_r	hip_flexion_l	hip_adduction_l	hip_rotation_l	knee_angle_l	knee_angle_l_beta	ankle_angle_l	subtalar_angle_l	mtp_angle_l	lumbar_extension	lumbar_bending	lumbar_rotation	arm_flex_r	arm_add_r	arm_rot_r	elbow_flex_r	pro_sup_r	arm_flex_l	arm_add_l	arm_rot_l	elbow_flex_l	pro_sup_l
      2.50000000	    -14.38531475	     -0.06424911	     -0.72910312	      1.45362164	      1.17937222	      0.10558528	     33.49545302	     -4.24209978	     -3.51376817	      6.91832072	      0.12074748	    -25.65293330	     -0.67409090	     -7.49999987	     34.70199044	     -4.65105386	     -0.97388236	     13.62763714	      0.23784714	    -29.96651978	    -11.69702739	     -7.49999987	    -15.00213239	      0.51057073	     -0.11236775	     39.01696641	    -20.71595100	      9.01150932	    101.12521975	     98.86034528	     38.57906561	    -29.84864130	      7.37109465	    115.62859276	     92.28188652
      2.51666670	    -13.41296382	     -0.31731595	     -0.59868192	      1.48373246	      1.13686649	      0.10159276	     33.73689476	     -4.24595551	     -3.64182494	      6.39329476	      0.11158404	    -25.00337542	     -0.92939748	     -7.49999987	     34.79080774	     -4.87047502	      0.06026502	     12.81334353	      0.22363503	    -30.62327317	    -13.00276427	     -7.49999987	    -15.55852369	      0.91685899	     -0.43501322	     38.39606797	    -20.49850184	      8.65004036	    101.79852637	     98.21378211	     36.57053978	    -29.92929512	      6.70851597	    116.38662733	     92.20178846
      2.53333330	    -12.36318702	     -0.48096658	     -0.75541690	      1.49483406	      1.10376580	      0.10113054	     34.32919354	     -4.43696874	     -3.92902959	      6.87450219	      0.11998270	    -24.94694614	     -0.98573634	     -7.49999987	     35.61412043	     -5.08245580	      0.98776046	     13.17066880	      0.22987154	    -30.11682487	    -13.24177358	     -7.49999987	    -16.89585978	      1.44591382	     -0.44738297	     39.57900696	    -20.66206144	      9.12988838	    102.02992356	     97.67217152	     36.15720041	    -29.74943303	      7.27452844	    117.13392950	     92.00856607
      2.55000000	    -11.26561709	     -0.92617512	     -0.60094350	      1.52397211	      1.06566901	      0.10825031	     34.37903633	     -4.30445082	     -4.45293549	      7.70443565	      0.13446777	    -24.86925598	     -1.37589926	     -7.49999987	     35.67964966	     -5.45163229	      1.90099761	     12.89117568	      0.22499346	    -29.54833930	    -12.96668323	     -7.49999987	    -17.86762471	      1.94767654	     -0.68484497	     39.81825974	    -19.98259287	     10.36582753	    103.07827696	     97.10021022	     33.91572972	    -29.83210046	      7.96026909	    118.26101194	     91.94715190
      2.56666670	    -10.51822875	     -1.24564476	     -0.69225807	      1.55201042	      1.01923140	      0.10927169	     34.12775404	     -4.12375403	     -4.63465721	      8.38433766	      0.14633430	    -24.99396358	     -2.03656182	     -7.49999987	     35.55901059	     -5.83211702	      1.97346876	     13.24052739	      0.23109080	    -28.97041631	    -12.84958768	     -7.49999987	    -17.92419230	      2.60902053	     -1.43789138	     42.07651214	    -19.26440227	     13.09150022	    102.68516697	     95.94042483	     32.31800564	    -30.40403091	      6.94366764	    119.72479145	     92.80950950
      2.58333330	     -9.37647396	     -1.63426810	     -0.68367642	      1.55953277	      0.97643063	      0.11096164	     34.95085022	     -3.88198962	     -4.16802215	     11.21025679	      0.19565589	    -25.08952470	     -3.10612268	     -7.49999987	     36.68470974	     -6.20432329	      2.01491701	     15.70789855	      0.27415455	    -28.39252291	    -12.88043611	     -7.49999987	    -19.40207464	      3.11034252	     -1.17946907	     44.25296003	    -19.47665246	     14.29193341	    103.29263678	     94.66111342	     33.71297363	    -30.28954013	      8.47316442	    120.19660155	     91.99983208
